HIERARCHY
ROOT Hips
{
	OFFSET -3.958830 18.904000 13.208200
	CHANNELS 6 Xposition Yposition Zposition Zrotation Yrotation Xrotation 
	JOINT LHipJoint
	{
		OFFSET 0.000000 0.000000 0.000000
		CHANNELS 3 Zrotation Yrotation Xrotation
		JOINT LeftUpLeg
		{
			OFFSET 1.800000 -1.400000 0.085000
			CHANNELS 3 Zrotation Yrotation Xrotation
			JOINT LeftLeg
			{
				OFFSET 2.215000 -6.000000 0.000000
				CHANNELS 3 Zrotation Yrotation Xrotation
				JOINT LeftFoot
				{
					OFFSET 2.500000 -6.900000 0.000000
					CHANNELS 3 Zrotation Yrotation Xrotation
					JOINT LeftToeBase
					{
						OFFSET 0.200000 -0.500000 1.950000
						CHANNELS 3 Zrotation Yrotation Xrotation
						End Site
						{
							OFFSET 0.000000 0.000000 0.000000
						}
					}
				}
			}
		}
	}
	JOINT RHipJoint
	{
		OFFSET 0.000000 0.000000 0.000000
		CHANNELS 3 Zrotation Yrotation Xrotation
		JOINT RightUpLeg
		{
			OFFSET -1.800000 -1.400000 0.085000
			CHANNELS 3 Zrotation Yrotation Xrotation
			JOINT RightLeg
			{
				OFFSET -2.215000 -6.000000 0.000000
				CHANNELS 3 Zrotation Yrotation Xrotation
				JOINT RightFoot
				{
					OFFSET -2.500000 -6.900000 0.000000
					CHANNELS 3 Zrotation Yrotation Xrotation
					JOINT RightToeBase
					{
						OFFSET -0.200000 -0.500000 1.950000
						CHANNELS 3 Zrotation Yrotation Xrotation
						End Site
						{
							OFFSET 0.000000 0.000000 0.000000
						}
					}
				}
			}
		}
	}
	JOINT LowerBack
	{
		OFFSET 0.000000 0.000000 0.000000
		CHANNELS 3 Zrotation Yrotation Xrotation
		JOINT Spine
		{
			OFFSET -0.087000 1.940000 -0.288900
			CHANNELS 3 Zrotation Yrotation Xrotation
			JOINT Spine1
			{
				OFFSET 0.000000 1.950000 0.060000
				CHANNELS 3 Zrotation Yrotation Xrotation
				JOINT Neck
				{
					OFFSET 0.000000 0.000000 0.000000
					CHANNELS 3 Zrotation Yrotation Xrotation
					JOINT Neck1
					{
						OFFSET 0.000000 1.600000 0.340000
						CHANNELS 3 Zrotation Yrotation Xrotation
						JOINT Head
						{
							OFFSET 0.000000 1.667000 -0.240000
							CHANNELS 3 Zrotation Yrotation Xrotation
							End Site
							{
								OFFSET 0.000000 0.000000 0.000000
							}
						}
					}
				}
				JOINT LeftShoulder
				{
					OFFSET 0.000000 0.000000 0.000000
					CHANNELS 3 Zrotation Yrotation Xrotation
					JOINT LeftArm
					{
						OFFSET 2.700000 1.550000 -0.730000
						CHANNELS 3 Zrotation Yrotation Xrotation
						JOINT LeftForeArm
						{
							OFFSET 5.450000 0.000000 0.000000
							CHANNELS 3 Zrotation Yrotation Xrotation
							JOINT LeftHand
							{
								OFFSET 3.450000 0.000000 0.000000
								CHANNELS 3 Zrotation Yrotation Xrotation
								JOINT LeftHandIndex1
								{
									OFFSET 0.750000 0.000000 0.000000
									CHANNELS 3 Zrotation Yrotation Xrotation
									End Site
									{
										OFFSET 0.000000 0.000000 0.000000
									}
								}
							}
						}
					}
				}
				JOINT RightShoulder
				{
					OFFSET 0.000000 0.000000 0.000000
					CHANNELS 3 Zrotation Yrotation Xrotation
					JOINT RightArm
					{
						OFFSET -2.700000 1.550000 -0.730000
						CHANNELS 3 Zrotation Yrotation Xrotation
						JOINT RightForeArm
						{
							OFFSET -5.450000 0.000000 0.000000
							CHANNELS 3 Zrotation Yrotation Xrotation
							JOINT RightHand
							{
								OFFSET -3.450000 0.000000 0.000000
								CHANNELS 3 Zrotation Yrotation Xrotation
								JOINT RightHandIndex1
								{
									OFFSET -0.750000 0.000000 0.000000
									CHANNELS 3 Zrotation Yrotation Xrotation
									End Site
									{
										OFFSET 0.000000 0.000000 0.000000
									}
								}
							}
						}
					}
				}
			}
		}
	}
}
MOTION
Frames: 14
Frame Time: 0.016667
-1.425750 17.244600 -0.222110 -2.468574 -2.400238 -3.578760 -15.370092 10.746313 6.003353 25.900778 -2.049241 -39.841571 -22.344095 25.662123 48.415104 1.322942 12.640290 0.228971 -0.074630 -0.005000 -0.291450 18.465648 -9.816932 2.081366 -24.915196 3.654458 -24.689833 7.197461 -14.178694 47.871664 -0.951531 -8.114396 1.388863 -0.101320 0.488650 0.231770 -3.668753 -0.702300 -9.295803 12.261748 3.912980 27.740860 1.127915 5.285225 11.362076 -1.705579 -1.829539 -14.079158 -7.466982 -1.421175 45.358141 1.954050 -4.643940 -12.303850 10.676263 -18.195804 3.558752 11.349178 -8.171758 -4.092380 4.803509 -57.954309 0.611229 -3.399472 3.171901 0.415200 0.102250 0.143440 0.197180 -7.340541 23.102309 11.290243 19.952056 18.221786 -5.528277 -126.411873 73.159762 -127.737442 2.255864 -1.283751 -0.137660 0.420130 0.246140 0.197750 
-1.466820 17.223650 -0.231820 -2.607563 -1.763407 -4.357232 -15.406672 10.768464 6.025289 26.361619 -2.046640 -39.858256 -21.779690 25.741469 49.310585 1.301786 12.750435 0.169645 -0.070430 -0.008630 -0.272820 18.431965 -9.792374 2.054740 -24.824635 3.652783 -24.020729 7.420589 -14.618682 48.818053 -1.009221 -8.320751 1.303685 -0.093740 0.468160 0.239680 -3.568087 -0.797725 -9.318430 11.368944 4.442654 28.458686 2.390239 5.619016 11.134595 -2.297637 -1.545571 -13.991985 -6.900983 -1.640446 45.682440 1.887890 -4.065670 -12.873730 11.114457 -19.417468 3.060180 13.017117 -8.696466 -5.068743 9.001158 -59.807657 -1.535647 -3.387006 3.169726 0.438490 0.095010 0.151230 0.172280 -6.563438 24.354660 11.429610 22.568089 18.642338 -6.901971 -132.991250 77.856495 -139.301363 2.125616 -1.562531 -0.145190 0.408910 0.260950 0.173800 
-1.551940 17.205710 -0.247860 -2.617335 -0.800300 -5.882442 -15.510832 10.922219 5.986242 26.825916 -2.277164 -39.371768 -20.549622 25.429419 50.453020 1.203687 12.870511 0.100682 -0.101400 -0.083020 -0.261930 18.323363 -9.719261 2.019866 -24.997195 3.485741 -22.811807 7.973380 -15.439960 50.109253 -1.082362 -8.660709 1.172588 -0.102140 0.488860 0.254020 -3.260314 -1.183665 -9.337266 8.593517 5.592815 30.045554 5.389481 6.189950 9.889697 -3.300544 -1.193233 -13.322978 -6.250797 -1.850718 46.036069 2.151920 -3.274810 -13.146330 11.545450 -21.985270 2.750492 14.826780 -9.224835 -6.894881 18.507351 -63.578090 -7.264019 -3.406865 3.117937 0.490250 0.112260 0.129100 0.124180 -4.730877 27.130369 9.441952 27.167378 18.189563 -15.796171 114.114828 81.458499 99.245861 2.334935 2.949030 -0.197550 0.422010 0.325250 0.123820 
-1.648780 17.184160 -0.249900 -2.591865 -0.007764 -7.353771 -15.624099 11.201747 5.911901 27.368977 -2.530030 -38.767916 -18.601136 24.659203 51.624665 1.042104 12.891404 0.048391 -0.092900 -0.089780 -0.250930 18.203147 -9.651190 1.906780 -24.915219 3.163500 -21.700457 7.320865 -15.615374 51.557937 -1.140747 -8.879408 1.078239 -0.056540 0.528710 0.266080 -2.922075 -1.796492 -9.233313 5.345938 6.834549 30.396366 9.000758 6.390094 12.196883 -5.278850 -0.907855 -13.997326 -5.900081 -2.238578 45.243604 3.236330 -2.766790 -14.580720 13.400788 -23.084051 0.342192 15.318609 -12.494467 -9.697788 36.635892 -64.287516 -18.064688 -3.431709 2.813362 0.540130 0.132600 0.115130 0.100880 -2.585557 28.334625 13.426117 28.741980 21.742675 -5.498909 -111.747062 88.122206 -130.929272 2.542162 -0.650562 -0.254280 0.474590 0.379240 0.089950 
-1.747890 17.171610 -0.234530 -3.029451 0.874088 -8.425603 -15.734346 11.351124 5.901674 28.512156 -2.856881 -38.042582 -18.142310 24.239608 51.608279 0.910470 12.851631 0.018994 -0.050690 -0.055970 -0.194920 18.098192 -9.573554 1.819528 -24.281150 2.721011 -20.684322 7.333223 -16.141738 52.645244 -1.227421 -9.087148 1.004296 -0.002960 0.525350 0.257320 -2.611722 -2.221315 -9.184849 2.413517 8.206767 29.815949 12.678510 6.773142 13.163030 -6.997122 -0.086226 -13.986184 -4.678461 -2.689760 46.137596 4.334390 -1.625800 -15.848180 14.736725 -26.014321 -1.047466 15.619577 -17.260122 -11.594709 56.556080 -62.007383 -29.632783 -3.515440 2.389591 0.596620 0.127920 0.127680 0.085930 -0.289440 30.655350 14.151620 32.886936 21.424357 -9.311305 61.191407 82.119698 36.426688 1.895044 -1.560011 -0.297810 0.520280 0.388180 0.046040 
-1.849460 17.156030 -0.219850 -3.473013 2.067554 -9.763061 -15.796565 11.470857 5.868084 29.572710 -3.431266 -37.085506 -17.795057 23.758307 51.527076 0.776131 12.808397 -0.009928 0.003540 0.003800 -0.143640 18.033652 -9.573834 1.705615 -23.671322 2.041112 -19.143307 7.376639 -16.747615 53.483189 -1.318519 -9.314926 0.915525 0.070390 0.532180 0.272370 -2.428636 -2.519538 -9.092709 0.097572 9.071652 29.029473 15.226001 6.782255 15.029287 -8.907276 1.410210 -13.708308 -2.365259 -3.863186 46.270834 4.699010 -0.521400 -16.557750 15.684553 -29.342832 -2.957453 17.531539 -23.194229 -12.809643 67.947193 -57.118438 -35.482891 -3.829106 2.307817 0.624100 0.149700 0.137180 0.079600 2.511538 32.537284 15.240767 37.112344 21.372406 -12.772881 52.475222 75.634622 25.746128 1.527833 -1.768616 -0.325960 0.552590 0.394720 0.012920 
-1.952700 17.138390 -0.183940 -3.963462 2.517389 -10.958902 -15.880185 11.666413 5.853654 31.077699 -3.595168 -35.652766 -18.064288 23.592869 50.707278 0.635196 12.760790 -0.033354 0.045870 0.061450 -0.113930 17.954980 -9.514744 1.560006 -22.611695 1.531278 -17.706928 6.869919 -16.956405 54.445401 -1.388742 -9.461433 0.884143 0.144820 0.554000 0.260790 -2.198287 -3.044855 -8.991126 -2.487513 9.742389 27.702241 17.490298 6.571104 17.030264 -11.008451 2.669712 -13.200944 -1.103289 -4.648471 46.439776 5.627590 0.326850 -17.756770 15.956604 -32.583582 -5.307332 18.851222 -30.271440 -14.057117 73.613949 -52.542646 -37.530287 -4.197216 2.314842 0.659350 0.171810 0.135940 0.077340 6.159459 34.207440 16.757420 40.977355 20.916867 -15.780547 45.048946 71.677296 17.878544 1.291478 -1.771098 -0.372370 0.617940 0.408280 -0.018080 
-2.043100 17.132920 -0.140270 -5.012699 2.955951 -11.413429 -16.017484 11.851838 5.953876 33.070310 -3.710901 -35.177311 -18.396463 23.463368 49.829556 0.552461 12.700320 -0.042154 0.116550 0.138200 -0.034460 17.850311 -9.355497 1.379740 -20.710867 0.923647 -16.483319 6.364381 -16.981484 54.692619 -1.462784 -9.453823 0.888286 0.194710 0.527890 0.291780 -1.855597 -3.764260 -8.917716 -5.098488 9.742757 25.601745 19.384844 5.817144 18.211952 -12.238343 4.322361 -12.671817 0.712175 -5.694588 46.396802 5.215330 1.371540 -19.158660 14.784148 -36.265099 -7.245782 18.921008 -39.304939 -15.217829 77.620629 -49.769775 -38.499361 -4.443841 2.221157 0.687590 0.175610 0.181290 0.083940 9.436456 35.654200 18.145758 44.667198 19.529566 -17.765428 38.879637 69.027675 12.268757 1.231410 -1.726037 -0.364040 0.626140 0.378470 -0.044250 
-2.129660 17.140150 -0.104760 -6.023636 2.842956 -12.011514 -16.178084 12.146975 5.984878 34.831620 -3.216072 -34.351661 -18.073378 23.211097 48.868537 0.431629 12.570565 -0.058713 0.155270 0.186800 0.021840 17.725616 -9.142947 1.212649 -18.496244 0.727465 -15.057009 5.807882 -16.633361 54.670349 -1.498515 -9.346127 0.928803 0.230520 0.483730 0.301990 -1.452645 -4.638078 -8.819934 -8.100495 9.580105 23.561309 20.771985 4.981995 19.320963 -12.890707 5.661771 -12.294180 2.023475 -6.004187 47.042138 4.728490 2.666480 -20.977840 13.963755 -39.186232 -8.125705 16.854953 -48.268123 -15.606284 80.249976 -48.587448 -38.921803 -4.629797 2.043159 0.730970 0.167430 0.220190 0.062050 11.140506 36.823943 19.083021 47.730655 18.396993 -18.677504 32.421639 67.335555 7.737916 1.261867 -1.607256 -0.369840 0.629490 0.375090 -0.084270 
-2.200990 17.158710 -0.068170 -7.068941 1.239402 -12.320734 -16.382966 12.457866 6.040593 37.000255 -1.820869 -33.140675 -18.038471 23.516995 47.756887 0.373144 12.545945 -0.087212 0.179820 0.204340 0.061840 17.582699 -8.814288 1.080071 -15.841425 1.185435 -14.020106 4.997490 -15.678635 54.585414 -1.500948 -9.133060 1.004227 0.244460 0.449490 0.308950 -0.968146 -5.600247 -8.820361 -11.035903 9.184280 20.926036 22.215215 4.221892 20.135047 -13.021107 5.801463 -12.431013 1.035227 -4.959024 49.476476 4.340510 3.801710 -21.468100 13.380091 -41.498373 -8.529263 4.898319 -55.502908 -10.791634 83.843570 -49.356326 -41.543005 -4.803271 1.750771 0.773950 0.152080 0.250720 0.052370 11.648584 39.160708 20.217591 48.779709 16.708090 -18.124281 25.288567 61.914655 3.916803 1.335393 -1.465290 -0.377890 0.626350 0.369930 -0.115160 
-2.265010 17.203150 -0.034600 -7.602911 -1.499720 -13.432159 -16.551118 12.959708 5.938347 38.312234 -0.022526 -30.327375 -17.127080 23.437299 46.670094 0.312566 12.406719 -0.094264 0.243940 0.266170 0.113270 17.423126 -8.570476 1.043582 -13.580772 2.047860 -12.331448 4.099961 -14.295020 54.325665 -1.501341 -8.842672 1.097878 0.274310 0.398760 0.318850 -0.523710 -6.564948 -8.959867 -13.358671 8.341900 19.580147 21.969633 4.016181 21.021282 -12.987682 5.025593 -13.214014 -1.921198 -2.719041 53.091549 4.992090 4.467510 -22.559590 11.604570 -43.869282 -9.540947 -15.756590 -56.753488 0.764830 88.697891 -52.167932 -46.938198 -4.950123 1.250776 0.829760 0.108120 0.301610 0.051450 12.519021 43.223211 22.175354 48.180072 15.959243 -16.083087 15.367064 52.426942 0.064509 1.388201 -1.325652 -0.362610 0.624470 0.351600 -0.133910 
-2.326610 17.248700 0.020180 -8.291223 -2.475558 -14.704494 -16.605761 12.663151 5.847712 39.340534 1.135848 -27.632520 -16.104331 22.982412 45.779138 0.257529 12.188532 -0.057652 0.300140 0.334800 0.129840 17.242501 -9.313516 1.355661 -12.049271 2.244083 -10.440946 4.088385 -13.650691 53.189656 -1.503410 -8.634908 1.163410 0.316560 0.377090 0.306240 -0.112945 -4.539844 -9.569411 -14.877509 12.072201 25.649087 23.438201 10.593887 20.328088 -10.368984 2.923075 -23.515828 0.394200 -3.189229 58.856934 6.221080 4.532790 -22.631400 11.962201 -26.361964 15.664274 111.577918 -81.360976 -154.485875 80.504794 -70.060148 -55.303374 -8.684291 0.874795 0.851660 0.073850 0.323910 0.064670 8.412691 32.651346 13.307643 48.273908 19.505536 -11.492714 8.195784 42.482260 -1.572026 1.513670 -1.421452 -0.351700 0.641690 0.335640 -0.129250 
-2.390250 17.286480 0.077760 -8.969386 -2.688727 -15.279945 -16.256095 12.330765 5.565170 39.388982 1.467311 -25.912676 -14.669205 22.061647 45.301696 0.231217 11.897956 0.052962 0.358820 0.427620 0.115320 17.515939 -9.881563 1.485340 -11.575945 1.925468 -9.004443 4.551622 -13.626584 51.921533 -1.521798 -8.534628 1.226308 0.362830 0.388920 0.273030 -1.010152 -2.846180 -9.419253 -11.081544 11.635807 20.914222 19.876556 9.675302 29.630981 -8.498430 0.913861 -24.629080 -0.320483 -2.596391 57.065844 8.111850 3.979900 -22.171470 13.009986 -26.970518 31.267843 98.584921 -67.696081 -148.925566 92.538090 -84.349515 -63.494103 -8.100273 1.141671 0.839600 0.045390 0.333380 0.117960 5.475098 31.962688 10.245513 46.306409 21.230848 -8.062669 0.460292 33.470546 -2.137259 1.547646 -1.241435 -0.332970 0.684190 0.294660 -0.086590 
-2.446650 17.336270 0.144030 -8.895934 -4.162609 -16.012924 -16.335803 12.956443 5.389922 39.044149 1.899029 -23.915412 -12.927802 20.956665 44.645966 0.185885 11.622168 0.133311 0.378100 0.451220 0.088140 17.381451 -9.673557 1.508643 -11.668906 1.685703 -6.940056 5.497587 -13.610884 50.106779 -1.487715 -8.311964 1.302489 0.377730 0.413190 0.254080 -0.667863 -4.225635 -9.482951 -12.128013 7.465842 19.604258 12.678129 8.189074 25.836613 -6.794401 0.024277 -21.718146 -7.031484 1.495378 58.196290 9.944240 2.612580 -22.272180 5.713775 -36.769008 13.615904 -42.925655 -69.813754 5.863979 87.012794 -64.817623 -68.438204 -6.126077 3.432736 0.852150 0.013600 0.334920 0.143080 7.861393 41.695603 16.293786 47.630292 18.870255 -4.472507 -4.242470 25.756594 -2.199681 1.677928 -1.139474 -0.332480 0.729460 0.296020 -0.051870 
